<svg width="23" height="30" viewBox="0 0 23 30" fill="none" xmlns="http://www.w3.org/2000/svg">
<path d="M21.5 11.9763C21.5 13.1628 20.9326 14.7899 19.8789 16.7015C18.8494 18.569 17.4581 20.5285 16.0381 22.3294C14.6225 24.1247 13.2032 25.7315 12.1358 26.891C11.8813 27.1675 11.6472 27.4182 11.4384 27.6394C11.2336 27.4198 11.0044 27.1713 10.7553 26.8975C9.70055 25.7381 8.29801 24.1314 6.89919 22.3362C5.49602 20.5354 4.12096 18.5758 3.10347 16.708C2.06239 14.797 1.5 13.1673 1.5 11.9763C1.5 6.39961 6.03528 1.5 11.432 1.5C16.851 1.5 21.5 6.42327 21.5 11.9763Z" fill="#DD5368" stroke="#DD5368" stroke-width="3"/>
<path d="M17.3906 8.25H17.1875V7.03125C17.1875 5.89375 14.6688 5 11.5 5C8.33125 5 5.8125 5.89375 5.8125 7.03125V8.25H5.60938C5.27295 8.25 5 8.5227 5 8.85938V10.8906C5 11.2271 5.27295 11.5 5.60938 11.5H5.8125V15.5625C5.8125 16.0112 6.17635 16.375 6.625 16.375V17.1875C6.625 17.6362 6.98885 18 7.4375 18H8.25C8.69865 18 9.0625 17.6362 9.0625 17.1875V16.375H13.9375V17.1875C13.9375 17.6362 14.3013 18 14.75 18H15.5625C16.0112 18 16.375 17.6362 16.375 17.1875V16.375H16.5375C16.9437 16.375 17.1875 16.05 17.1875 15.725V11.5H17.3906C17.7271 11.5 18 11.2271 18 10.8906V8.85938C18 8.5227 17.7271 8.25 17.3906 8.25ZM9.0625 6.82812C9.0625 6.7159 9.1534 6.625 9.26562 6.625H13.7344C13.8466 6.625 13.9375 6.7159 13.9375 6.82812V7.23438C13.9375 7.3466 13.8466 7.4375 13.7344 7.4375H9.26562C9.1534 7.4375 9.0625 7.3466 9.0625 7.23438V6.82812ZM7.84375 15.1562C7.3951 15.1562 7.03125 14.7924 7.03125 14.3438C7.03125 13.8951 7.3951 13.5312 7.84375 13.5312C8.2924 13.5312 8.65625 13.8951 8.65625 14.3438C8.65625 14.7924 8.2924 15.1562 7.84375 15.1562ZM11.0938 12.3125H8.25C7.80135 12.3125 7.4375 11.9487 7.4375 11.5V9.0625C7.4375 8.61385 7.80135 8.25 8.25 8.25H11.0938V12.3125ZM11.9062 12.3125V8.25H14.75C15.1987 8.25 15.5625 8.61385 15.5625 9.0625V11.5C15.5625 11.9487 15.1987 12.3125 14.75 12.3125H11.9062ZM15.1562 15.1562C14.7076 15.1562 14.3438 14.7924 14.3438 14.3438C14.3438 13.8951 14.7076 13.5312 15.1562 13.5312C15.6049 13.5312 15.9688 13.8951 15.9688 14.3438C15.9688 14.7924 15.6049 15.1562 15.1562 15.1562Z" fill="white"/>
</svg>
