<svg width="23" height="30" viewBox="0 0 23 30" fill="none" xmlns="http://www.w3.org/2000/svg">
<path d="M21.5 11.9763C21.5 13.1628 20.9326 14.7899 19.8789 16.7015C18.8494 18.569 17.4581 20.5285 16.0381 22.3294C14.6225 24.1247 13.2032 25.7315 12.1358 26.891C11.8813 27.1675 11.6472 27.4182 11.4384 27.6394C11.2336 27.4198 11.0044 27.1713 10.7553 26.8975C9.70055 25.7381 8.29801 24.1314 6.89919 22.3362C5.49602 20.5354 4.12096 18.5758 3.10347 16.708C2.06239 14.797 1.5 13.1673 1.5 11.9763C1.5 6.39961 6.03528 1.5 11.432 1.5C16.851 1.5 21.5 6.42327 21.5 11.9763Z" fill="#800080" stroke="#800080" stroke-width="3"/>
<path d="M17.5 7.4375V13.9375C17.5 15.2531 15.8494 16.375 14.0173 16.375L15.7042 17.6374C15.8635 17.7567 15.774 18 15.5714 18H7.42857C7.22559 18 7.13682 17.7564 7.29579 17.6374L8.98273 16.375C7.15589 16.375 5.5 15.2566 5.5 13.9375V7.4375C5.5 6.09131 7.21429 5 8.92857 5H14.0714C15.8125 5 17.5 6.09131 17.5 7.4375ZM10.8571 10.8906V8.04688C10.8571 7.71032 10.5693 7.4375 10.2143 7.4375H7.42857C7.07353 7.4375 6.78571 7.71032 6.78571 8.04688V10.8906C6.78571 11.2272 7.07353 11.5 7.42857 11.5H10.2143C10.5693 11.5 10.8571 11.2272 10.8571 10.8906ZM16.2143 10.8906V8.04688C16.2143 7.71032 15.9265 7.4375 15.5714 7.4375H12.7857C12.4307 7.4375 12.1429 7.71032 12.1429 8.04688V10.8906C12.1429 11.2272 12.4307 11.5 12.7857 11.5H15.5714C15.9265 11.5 16.2143 11.2272 16.2143 10.8906ZM14.9286 12.3125C14.2185 12.3125 13.6429 12.8581 13.6429 13.5312C13.6429 14.2044 14.2185 14.75 14.9286 14.75C15.6387 14.75 16.2143 14.2044 16.2143 13.5312C16.2143 12.8581 15.6387 12.3125 14.9286 12.3125ZM8.07143 12.3125C7.36134 12.3125 6.78571 12.8581 6.78571 13.5312C6.78571 14.2044 7.36134 14.75 8.07143 14.75C8.78152 14.75 9.35714 14.2044 9.35714 13.5312C9.35714 12.8581 8.78152 12.3125 8.07143 12.3125Z" fill="white"/>
</svg>
