<svg width="31" height="38" viewBox="0 0 31 38" fill="none" xmlns="http://www.w3.org/2000/svg">
<g filter="url(#filter0_d)">
<path d="M25.5 11.9763C25.5 13.1628 24.9326 14.7899 23.8789 16.7015C22.8494 18.569 21.4581 20.5285 20.0381 22.3294C18.6225 24.1247 17.2032 25.7315 16.1358 26.891C15.8813 27.1675 15.6472 27.4182 15.4384 27.6394C15.2336 27.4198 15.0044 27.1713 14.7553 26.8975C13.7006 25.7381 12.298 24.1314 10.8992 22.3362C9.49602 20.5354 8.12096 18.5758 7.10347 16.708C6.06239 14.797 5.5 13.1673 5.5 11.9763C5.5 6.39961 10.0353 1.5 15.432 1.5C20.851 1.5 25.5 6.42327 25.5 11.9763Z" fill="#474747" stroke="#474747" stroke-width="3"/>
<circle cx="15.568" cy="11.2959" r="4.57988" fill="white" stroke="#474747" stroke-width="2"/>
</g>
<defs>
<filter id="filter0_d" x="0" y="0" width="31" height="37.8047" filterUnits="userSpaceOnUse" color-interpolation-filters="sRGB">
<feFlood flood-opacity="0" result="BackgroundImageFix"/>
<feColorMatrix in="SourceAlpha" type="matrix" values="0 0 0 0 0 0 0 0 0 0 0 0 0 0 0 0 0 0 127 0"/>
<feOffset dy="4"/>
<feGaussianBlur stdDeviation="2"/>
<feColorMatrix type="matrix" values="0 0 0 0 0 0 0 0 0 0 0 0 0 0 0 0 0 0 0.25 0"/>
<feBlend mode="normal" in2="BackgroundImageFix" result="effect1_dropShadow"/>
<feBlend mode="normal" in="SourceGraphic" in2="effect1_dropShadow" result="shape"/>
</filter>
</defs>
</svg>
